<svg width="256" height="300" viewBox="0 0 128 150" fill="none" xmlns="http://www.w3.org/2000/svg" role="img" aria-label="VIZIO">
<defs><linearGradient id="vzBlue" x1="64" y1="20" x2="104" y2="118" gradientUnits="userSpaceOnUse"><stop offset="0" stop-color="#8FC2FF"/><stop offset=".5" stop-color="#3C94FC"/><stop offset="1" stop-color="#1C64F0"/></linearGradient></defs>
<g class="vz-dark" fill="#2E7BF5">
<path d="M 48.08,137.35 L 48.08,138.58 L 50.38,140.74 L 51.69,140.90 L 52.18,141.67 L 55.14,142.75 L 57.44,144.44 L 58.58,144.60 L 59.08,145.37 L 60.55,145.52 L 61.05,146.30 L 62.69,146.60 L 66.30,146.30 L 68.59,144.60 L 69.74,144.44 L 70.24,143.67 L 71.55,143.52 L 72.04,142.75 L 76.64,140.74 L 78.93,138.73 L 78.93,136.42 L 77.46,134.88 L 75.16,134.88 L 69.25,138.43 L 67.77,138.73 L 67.28,139.51 L 66.30,139.51 L 65.48,140.43 L 64.33,140.59 L 61.54,140.43 L 57.44,137.81 L 56.29,137.65 L 55.79,136.88 L 54.48,136.73 L 53.66,135.80 L 52.68,135.80 L 51.86,134.88 L 49.89,135.03 Z"/>
<path d="M 3.94,111.11 L 2.79,113.12 L 2.79,114.66 L 4.27,116.67 L 5.42,116.82 L 6.24,117.75 L 10.50,119.60 L 10.99,120.37 L 12.31,120.52 L 14.93,122.38 L 15.92,122.38 L 18.22,124.07 L 19.36,124.23 L 19.86,125.00 L 21.17,125.15 L 21.66,125.93 L 26.26,127.93 L 27.08,128.86 L 28.06,128.86 L 28.55,129.63 L 29.87,129.78 L 30.85,130.71 L 33.31,130.86 L 35.45,129.32 L 35.45,127.01 L 34.30,125.77 L 32.98,125.62 L 27.24,122.07 L 24.12,120.99 L 23.63,120.22 L 22.48,120.06 L 20.35,118.36 L 19.04,118.21 L 18.54,117.44 L 13.78,115.28 L 13.29,114.51 L 12.14,114.51 L 11.65,113.73 L 7.06,111.73 L 6.56,110.96 Z"/>
<path d="M 48.57,102.47 L 48.90,104.17 L 50.22,105.56 L 51.69,105.71 L 53.83,107.41 L 55.14,107.56 L 55.63,108.33 L 56.94,108.49 L 57.44,109.26 L 58.75,109.41 L 59.24,110.19 L 60.55,110.34 L 61.21,111.27 L 62.36,111.27 L 63.34,112.04 L 66.30,111.11 L 68.59,109.41 L 69.58,109.41 L 70.24,108.49 L 71.55,108.33 L 72.04,107.56 L 73.35,107.41 L 73.68,106.79 L 76.64,105.56 L 78.93,103.24 L 78.77,101.39 L 76.96,99.69 L 75.16,99.69 L 69.25,103.24 L 65.97,104.48 L 65.48,105.25 L 64.33,105.40 L 61.87,105.25 L 61.37,104.48 L 60.23,104.32 L 59.73,103.55 L 58.42,103.40 L 57.93,102.62 L 56.62,102.47 L 55.79,101.54 L 54.81,101.54 L 54.15,100.77 L 52.68,100.46 L 52.02,99.69 L 50.22,99.85 L 49.07,100.93 Z"/>
<path d="M 3.77,77.78 L 2.95,80.09 L 4.10,82.41 L 5.42,82.56 L 5.91,83.33 L 7.22,83.49 L 11.16,86.11 L 14.28,87.19 L 14.77,87.96 L 17.56,89.04 L 18.05,89.81 L 21.01,90.90 L 24.78,93.52 L 26.09,93.67 L 26.58,94.44 L 27.90,94.60 L 32.00,97.22 L 34.79,97.38 L 36.43,95.99 L 36.43,93.36 L 34.13,91.51 L 29.70,89.51 L 29.21,88.73 L 27.90,88.58 L 25.27,86.73 L 24.29,86.73 L 22.15,85.03 L 20.84,84.88 L 20.35,84.10 L 17.39,83.02 L 15.26,81.33 L 12.31,80.25 L 11.49,79.32 L 10.34,79.17 L 6.40,76.70 L 5.09,76.70 Z"/>
<path d="M 2.79,39.04 L 2.79,56.02 L 4.10,57.41 L 7.88,56.94 L 8.53,45.68 L 10.01,45.52 L 46.93,65.74 L 50.22,63.73 L 50.22,61.42 L 48.90,60.03 L 38.73,55.25 L 7.38,37.65 L 5.09,37.35 Z"/>
</g><g class="vz-blue" fill="url(#vzBlue)">
<path d="M 124.06,111.88 L 122.75,110.80 L 120.45,110.96 L 92.88,125.93 L 91.41,127.47 L 91.73,129.94 L 93.54,131.48 L 95.02,131.48 L 121.60,117.44 L 124.06,115.28 Z"/>
<path d="M 124.06,77.93 L 122.75,76.70 L 120.78,76.70 L 94.19,90.74 L 90.58,93.21 L 90.58,96.14 L 92.55,97.84 L 93.70,97.84 L 121.76,83.33 L 124.06,81.48 Z"/>
<path d="M 123.90,38.12 L 122.09,36.88 L 120.62,37.04 L 81.39,58.18 L 76.80,61.27 L 76.80,64.20 L 78.44,65.74 L 80.08,65.74 L 116.68,45.99 L 118.15,46.14 L 118.65,56.48 L 120.62,57.87 L 123.08,57.41 L 124.23,55.86 Z"/>
<path d="M 23.14,25.46 L 23.63,28.24 L 26.58,29.48 L 60.23,11.27 L 64.66,10.03 L 101.58,29.48 L 105.03,27.16 L 104.04,24.07 L 64.82,3.40 L 62.03,3.55 L 25.44,23.15 Z"/>
</g></svg>